<svg width="64" height="64" viewBox="0 0 64 64" fill="none" xmlns="http://www.w3.org/2000/svg">
<rect width="64" height="64" rx="10" fill="black"/>
<path d="M36.0178 60C31.4339 60 27.2367 58.9951 23.426 56.9852C19.6706 54.9753 16.6607 51.9605 14.3964 47.9407C12.1321 43.8667 11 38.842 11 32.8667C11 26.8914 12.1321 21.8395 14.3964 17.7111C16.6607 13.5284 19.6982 10.3778 23.5089 8.25926C27.3195 6.08642 31.5444 5 36.1834 5C39.8284 5 42.9487 5.70617 45.5444 7.11852C48.1953 8.47654 50.3767 10.0519 52.0888 11.8444L44.7988 19.8296C43.6943 18.6889 42.4793 17.8198 41.1538 17.2222C39.8284 16.5704 38.1716 16.2444 36.1834 16.2444C34.0296 16.2444 32.069 16.8963 30.3018 18.2C28.5345 19.4494 27.1262 21.2963 26.0769 23.7407C25.0828 26.1309 24.5858 29.0099 24.5858 32.3778C24.5858 35.8543 25.0276 38.8148 25.9112 41.2593C26.8501 43.7037 28.2308 45.5778 30.0533 46.8815C31.8757 48.1309 34.1124 48.7556 36.7633 48.7556C37.5917 48.7556 38.4201 48.6469 39.2485 48.4296C40.0769 48.2123 40.7396 47.9136 41.2367 47.5333V39.2222H33.9467V28.6296H53V53.563C51.2327 55.1926 48.8028 56.6864 45.7101 58.0444C42.6726 59.3481 39.4418 60 36.0178 60Z" fill="white"/>
</svg>
