<svg width="64" height="64" viewBox="0 0 64 64" fill="none" xmlns="http://www.w3.org/2000/svg">
<rect width="64" height="64" rx="10" fill="#E0F2FE"/>
<path d="M33.9688 54.8125C29.2604 54.8125 25.2708 53.8958 22 52.0625C18.75 50.2292 16.2708 47.6875 14.5625 44.4375C12.8542 41.1667 12 37.3854 12 33.0938V31.0312C12 26.5104 12.8438 22.5208 14.5312 19.0625C16.2188 15.6042 18.6667 12.8958 21.875 10.9375C25.0833 8.97917 28.9583 8 33.5 8C36.6042 8 39.7188 8.47917 42.8438 9.4375C45.9688 10.375 48.7188 11.8646 51.0938 13.9062V24.5625H43.2812L41.625 18.7812C40.9167 18.0521 39.9062 17.4479 38.5938 16.9688C37.3021 16.4896 35.8438 16.25 34.2188 16.25C31.7188 16.25 29.625 16.875 27.9375 18.125C26.25 19.3542 24.9792 21.0729 24.125 23.2812C23.2917 25.4896 22.875 28.0521 22.875 30.9688V33.0938C22.875 35.8438 23.3125 38.2292 24.1875 40.25C25.0833 42.2708 26.3854 43.8333 28.0938 44.9375C29.8021 46.0417 31.9062 46.5938 34.4062 46.5938C35.7188 46.5938 37.0208 46.4583 38.3125 46.1875C39.6042 45.9167 40.6146 45.6146 41.3438 45.2812V39.4062L36.2188 38.7812V31.2188H52.3438V50.0938C49.8854 51.6771 47.1042 52.8646 44 53.6562C40.9167 54.4271 37.5729 54.8125 33.9688 54.8125Z" fill="#3B82F6"/>
</svg>
